<?xml version="1.0" encoding="UTF-8"?>
<svg id="Capa_2" xmlns="http://www.w3.org/2000/svg" viewBox="0 0 4631.89 2015.84">
  <defs>
    <style>
      .cls-1 {
        fill: #0054f5;
      }

      .cls-2 {
        font-family: BitcountPropDouble-RegularCircle, 'Bitcount Prop Double';
        font-size: 175.42px;
        letter-spacing: 0em;
      }
    </style>
  </defs>
  <g id="Capa_1-2" data-name="Capa_1">
    <g>
      <g>
        <path class="cls-1" d="M618.78,143.94c12.02,12.16,18.04,27.02,18.04,44.63s-6.02,32.49-18.04,44.63c-12.03,12.16-26.75,18.23-44.18,18.23s-32.16-6.07-44.18-18.23c-12.03-12.13-18.04-27.02-18.04-44.63s6.01-32.46,18.04-44.63c12.02-12.13,26.77-18.23,44.18-18.23s32.15,6.1,44.18,18.23ZM618.78,269.65c12.02,12.16,18.04,27.04,18.04,44.64s-6.02,32.49-18.04,44.63c-12.03,12.16-26.75,18.23-44.18,18.23s-32.16-6.07-44.18-18.23c-12.03-12.13-18.04-27.04-18.04-44.63s6.01-32.48,18.04-44.64c12.02-12.13,26.77-18.23,44.18-18.23s32.15,6.1,44.18,18.23ZM618.78,395.38c12.02,12.15,18.04,27.02,18.04,44.63s-6.02,32.49-18.04,44.63c-12.03,12.16-26.75,18.23-44.18,18.23s-32.16-6.07-44.18-18.23c-12.03-12.13-18.04-27.02-18.04-44.63s6.01-32.48,18.04-44.63c12.02-12.15,26.77-18.23,44.18-18.23s32.15,6.08,44.18,18.23ZM618.78,521.09c12.02,12.16,18.04,27.04,18.04,44.63s-6.02,32.49-18.04,44.64c-12.03,12.15-26.75,18.23-44.18,18.23s-32.16-6.08-44.18-18.23c-12.03-12.15-18.04-27.04-18.04-44.64s6.01-32.46,18.04-44.63c12.02-12.13,26.77-18.23,44.18-18.23s32.15,6.1,44.18,18.23ZM743.25,18.23c12.01,12.15,18.04,27.02,18.04,44.63s-6.04,32.49-18.04,44.63c-12.05,12.16-26.77,18.23-44.18,18.23s-32.18-6.07-44.2-18.23c-12.03-12.13-18.04-27.02-18.04-44.63s6.01-32.48,18.04-44.63c12.02-12.15,26.77-18.23,44.2-18.23s32.13,6.08,44.18,18.23ZM743.25,143.94c12.01,12.16,18.04,27.02,18.04,44.63s-6.04,32.49-18.04,44.63c-12.05,12.16-26.77,18.23-44.18,18.23s-32.18-6.07-44.2-18.23c-12.03-12.13-18.04-27.02-18.04-44.63s6.01-32.46,18.04-44.63c12.02-12.13,26.77-18.23,44.2-18.23s32.13,6.1,44.18,18.23ZM743.25,269.65c12.01,12.16,18.04,27.04,18.04,44.64s-6.04,32.49-18.04,44.63c-12.05,12.16-26.77,18.23-44.18,18.23s-32.18-6.07-44.2-18.23c-12.03-12.13-18.04-27.04-18.04-44.63s6.01-32.48,18.04-44.64c12.02-12.13,26.77-18.23,44.2-18.23s32.13,6.1,44.18,18.23ZM743.25,395.38c12.01,12.15,18.04,27.02,18.04,44.63s-6.04,32.49-18.04,44.63c-12.05,12.16-26.77,18.23-44.18,18.23s-32.18-6.07-44.2-18.23c-12.03-12.13-18.04-27.02-18.04-44.63s6.01-32.48,18.04-44.63c12.02-12.15,26.77-18.23,44.2-18.23s32.13,6.08,44.18,18.23ZM743.25,521.09c12.01,12.16,18.04,27.04,18.04,44.63s-6.04,32.49-18.04,44.64c-12.05,12.15-26.77,18.23-44.18,18.23s-32.18-6.08-44.2-18.23c-12.03-12.15-18.04-27.04-18.04-44.64s6.01-32.46,18.04-44.63c12.02-12.13,26.77-18.23,44.2-18.23s32.13,6.1,44.18,18.23ZM743.25,646.82c12.01,12.15,18.04,27.02,18.04,44.63s-6.04,32.49-18.04,44.63c-12.05,12.16-26.77,18.23-44.18,18.23s-32.18-6.07-44.2-18.23c-12.03-12.13-18.04-27.02-18.04-44.63s6.01-32.48,18.04-44.63c12.02-12.15,26.77-18.23,44.2-18.23s32.13,6.08,44.18,18.23ZM867.71,18.23c12.02,12.15,18.04,27.02,18.04,44.63s-6.02,32.49-18.04,44.63c-12.03,12.16-26.77,18.23-44.18,18.23s-32.16-6.07-44.18-18.23c-12.03-12.13-18.04-27.02-18.04-44.63s6.01-32.48,18.04-44.63c12.02-12.15,26.75-18.23,44.18-18.23s32.15,6.08,44.18,18.23ZM867.71,646.82c12.02,12.15,18.04,27.02,18.04,44.63s-6.02,32.49-18.04,44.63c-12.03,12.16-26.77,18.23-44.18,18.23s-32.16-6.07-44.18-18.23c-12.03-12.13-18.04-27.02-18.04-44.63s6.01-32.48,18.04-44.63c12.02-12.15,26.75-18.23,44.18-18.23s32.15,6.08,44.18,18.23ZM992.16,18.23c12.02,12.15,18.04,27.02,18.04,44.63s-6.02,32.49-18.04,44.63c-12.03,12.16-26.75,18.23-44.18,18.23s-32.16-6.07-44.18-18.23c-12.03-12.13-18.04-27.02-18.04-44.63s6.01-32.48,18.04-44.63c12.02-12.15,26.77-18.23,44.18-18.23s32.15,6.08,44.18,18.23ZM992.16,646.82c12.02,12.15,18.04,27.02,18.04,44.63s-6.02,32.49-18.04,44.63c-12.03,12.16-26.75,18.23-44.18,18.23s-32.16-6.07-44.18-18.23c-12.03-12.13-18.04-27.02-18.04-44.63s6.01-32.48,18.04-44.63c12.02-12.15,26.77-18.23,44.18-18.23s32.15,6.08,44.18,18.23ZM1116.63,143.94c12.01,12.16,18.04,27.02,18.04,44.63s-6.04,32.49-18.04,44.63c-12.05,12.16-26.77,18.23-44.18,18.23s-32.18-6.07-44.18-18.23c-12.05-12.13-18.06-27.02-18.06-44.63s6.01-32.46,18.06-44.63c12.01-12.13,26.75-18.23,44.18-18.23s32.13,6.1,44.18,18.23ZM1116.63,521.09c12.01,12.16,18.04,27.04,18.04,44.63s-6.04,32.49-18.04,44.64c-12.05,12.15-26.77,18.23-44.18,18.23s-32.18-6.08-44.18-18.23c-12.05-12.15-18.06-27.04-18.06-44.64s6.01-32.46,18.06-44.63c12.01-12.13,26.75-18.23,44.18-18.23s32.13,6.1,44.18,18.23Z"/>
        <path class="cls-1" d="M1147.95,750.19c7.64-7.71,20.86-19.02,25.95-62.19,7.62-65.27,11.19-183.99,11.19-302.19s-3.57-236.41-11.19-301.68c-5.1-42.66-16.29-55.5-25.44-62.19-2.04-1.54-3.57-3.08-4.58-4.63h633.44v168.57c-68.68-77.09-155.69-102.27-254.39-102.27-4.07,37-7.12,91.99-9.15,152.64,87.51-6.17,149.07-27.24,171.97-54.48v180.9c-22.9-27.75-85.48-49.85-172.99-54.99,0,133.11,1.03,298.08,10.18,380.31,69.19,0,197.42-54.48,254.39-102.27v168.57h-633.44l4.07-4.11Z"/>
        <path class="cls-1" d="M1825.14,688.01c15.26-130.54,14.75-473.84,0-604.38-6.11-51.39-22.9-57.56-30.02-66.3h410.6c-8.65,8.74-24.94,14.9-31.55,66.3-14.25,130.54-13.23,472.3,1.01,602.84,69.19,1.03,187.24-40.6,237.11-101.76v169.6h-617.17c7.12-8.22,23.91-14.9,30.02-66.3Z"/>
        <path class="cls-1" d="M2234.55,493.43c2.84-142.98,10.92-286.42,0-429.03-2.79-36.48-11.43-40.86-14.99-47.06h205.02c-1.57,2.25-3.64,4.26-5.8,7.65-10.45,16.39-10.02,33.67-9.96,39.41.24,21.48-2.04,119.86-4,255.17-5.77,46.39-4.4,84.11-1.93,110.37,2.25,23.94-1.5,44.44,12.53,54.71,12.39,9.07,30.39,5.88,40.63,3.12-12.14,22.08-45.96,76.38-115.81,112.9-59.07,30.88-114.4,33.64-140.72,33.32,2.51-4.56,6.56-12.2,10.84-21.93,23.3-52.9,23.81-99.63,24.19-118.64Z"/>
        <path class="cls-1" d="M2466.83,692.12c15.26-131.57,15.26-476.92,0-607.46-6.11-52.42-22.9-58.59-31.04-67.32h342.93l313.41,282.15c0-111.52-77.85-226.13-195.88-282.15h301.2c-8.14,8.74-23.91,9.76-30.02,62.19-15.26,131.57-15.26,476.92,0,607.46,6.11,52.42,21.88,59.1,30.02,67.32h-103.29l-550.02-499.02c0,207.63,286.46,426.56,393.81,499.02h-502.18c8.14-8.22,24.93-9.25,31.04-62.19Z"/>
        <path class="cls-1" d="M3198.47,750.19c7.64-7.71,20.86-19.02,25.95-62.19,7.62-65.27,11.19-183.99,11.19-302.19s-3.57-236.41-11.19-301.68c-5.1-42.66-16.29-55.5-25.44-62.19-2.04-1.54-3.57-3.08-4.58-4.63h633.44v168.57c-68.68-77.09-155.69-102.27-254.39-102.27-4.07,37-7.12,91.99-9.15,152.64,87.51-6.17,149.07-27.24,171.97-54.48v180.9c-22.9-27.75-85.48-49.85-172.99-54.99,0,133.11,1.03,298.08,10.18,380.31,69.19,0,197.42-54.48,254.39-102.27v168.57h-633.44l4.07-4.11Z"/>
      </g>
      <g>
        <path class="cls-1" d="M1097.99,1462.78c15.26-130.54,14.75-475.38,0-605.92-69.19-1.03-132.79,42.14-182.66,103.3v-169.6h714.86v169.6c-49.87-61.16-113.46-104.33-182.66-103.3-14.25,130.54-14.76,475.38-.51,605.92,6.62,51.39,23.41,58.07,31.55,66.3h-410.6c7.12-8.22,23.91-14.9,30.02-66.3Z"/>
        <path class="cls-1" d="M1671.77,1462.78c15.26-130.54,14.25-473.84,0-604.38-5.6-51.39-22.9-57.56-30.02-66.3h410.6c-8.65,8.74-24.94,14.9-31.55,66.3-14.25,130.54-14.25,473.84,0,604.38,6.61,51.39,22.9,58.07,31.55,66.3h-410.6c7.12-8.22,23.91-14.9,30.02-66.3Z"/>
        <path class="cls-1" d="M2151.95,932.91c11.73,11.88,17.63,26.41,17.63,43.6s-5.9,31.73-17.63,43.58c-11.76,11.88-26.14,17.82-43.16,17.82s-31.42-5.94-43.16-17.82c-11.76-11.85-17.63-26.4-17.63-43.58s5.87-31.72,17.63-43.6c11.73-11.85,26.14-17.8,43.16-17.8s31.39,5.95,43.16,17.8ZM2151.95,1055.71c11.73,11.88,17.63,26.4,17.63,43.58s-5.9,31.73-17.63,43.6c-11.76,11.88-26.14,17.8-43.16,17.8s-31.42-5.92-43.16-17.8c-11.76-11.86-17.63-26.4-17.63-43.6s5.87-31.71,17.63-43.58c11.73-11.86,26.14-17.8,43.16-17.8s31.39,5.94,43.16,17.8ZM2151.95,1178.49c11.73,11.88,17.63,26.41,17.63,43.6s-5.9,31.73-17.63,43.6c-11.76,11.88-26.14,17.8-43.16,17.8s-31.42-5.92-43.16-17.8c-11.76-11.86-17.63-26.41-17.63-43.6s5.87-31.72,17.63-43.6c11.73-11.85,26.14-17.8,43.16-17.8s31.39,5.95,43.16,17.8ZM2151.95,1301.29c11.73,11.88,17.63,26.4,17.63,43.6s-5.9,31.73-17.63,43.58c-11.76,11.88-26.14,17.8-43.16,17.8s-31.42-5.92-43.16-17.8c-11.76-11.85-17.63-26.4-17.63-43.58s5.87-31.72,17.63-43.6c11.73-11.86,26.14-17.8,43.16-17.8s31.39,5.94,43.16,17.8ZM2273.51,810.12c11.75,11.88,17.63,26.4,17.63,43.58s-5.88,31.73-17.63,43.6c-11.75,11.88-26.12,17.8-43.16,17.8s-31.41-5.92-43.16-17.8c-11.75-11.86-17.62-26.41-17.62-43.6s5.87-31.71,17.62-43.58c11.75-11.86,26.14-17.82,43.16-17.82s31.41,5.95,43.16,17.82ZM2273.51,932.91c11.75,11.88,17.63,26.41,17.63,43.6s-5.88,31.73-17.63,43.58c-11.75,11.88-26.12,17.82-43.16,17.82s-31.41-5.94-43.16-17.82c-11.75-11.85-17.62-26.4-17.62-43.58s5.87-31.72,17.62-43.6c11.75-11.85,26.14-17.8,43.16-17.8s31.41,5.95,43.16,17.8ZM2273.51,1055.71c11.75,11.88,17.63,26.4,17.63,43.58s-5.88,31.73-17.63,43.6c-11.75,11.88-26.12,17.8-43.16,17.8s-31.41-5.92-43.16-17.8c-11.75-11.86-17.62-26.4-17.62-43.6s5.87-31.71,17.62-43.58c11.75-11.86,26.14-17.8,43.16-17.8s31.41,5.94,43.16,17.8ZM2273.51,1178.49c11.75,11.88,17.63,26.41,17.63,43.6s-5.88,31.73-17.63,43.6c-11.75,11.88-26.12,17.8-43.16,17.8s-31.41-5.92-43.16-17.8c-11.75-11.86-17.62-26.41-17.62-43.6s5.87-31.72,17.62-43.6c11.75-11.85,26.14-17.8,43.16-17.8s31.41,5.95,43.16,17.8ZM2273.51,1301.29c11.75,11.88,17.63,26.4,17.63,43.6s-5.88,31.73-17.63,43.58c-11.75,11.88-26.12,17.8-43.16,17.8s-31.41-5.92-43.16-17.8c-11.75-11.85-17.62-26.4-17.62-43.58s5.87-31.72,17.62-43.6c11.75-11.86,26.14-17.8,43.16-17.8s31.41,5.94,43.16,17.8ZM2273.51,1424.09c11.75,11.88,17.63,26.4,17.63,43.58s-5.88,31.73-17.63,43.6c-11.75,11.88-26.12,17.8-43.16,17.8s-31.41-5.92-43.16-17.8c-11.75-11.86-17.62-26.41-17.62-43.6s5.87-31.71,17.62-43.58c11.75-11.86,26.14-17.82,43.16-17.82s31.41,5.95,43.16,17.82ZM2395.08,810.12c11.73,11.88,17.63,26.4,17.63,43.58s-5.9,31.73-17.63,43.6c-11.76,11.88-26.14,17.8-43.16,17.8s-31.42-5.92-43.16-17.8c-11.76-11.86-17.63-26.41-17.63-43.6s5.87-31.71,17.63-43.58c11.73-11.86,26.14-17.82,43.16-17.82s31.39,5.95,43.16,17.82ZM2395.08,1424.09c11.73,11.88,17.63,26.4,17.63,43.58s-5.9,31.73-17.63,43.6c-11.76,11.88-26.14,17.8-43.16,17.8s-31.42-5.92-43.16-17.8c-11.76-11.86-17.63-26.41-17.63-43.6s5.87-31.71,17.63-43.58c11.73-11.86,26.14-17.82,43.16-17.82s31.39,5.95,43.16,17.82ZM2516.65,810.12c11.73,11.88,17.62,26.4,17.62,43.58s-5.88,31.73-17.62,43.6c-11.76,11.88-26.14,17.8-43.16,17.8s-31.42-5.92-43.16-17.8c-11.76-11.86-17.63-26.41-17.63-43.6s5.87-31.71,17.63-43.58c11.73-11.86,26.12-17.82,43.16-17.82s31.39,5.95,43.16,17.82ZM2516.65,1424.09c11.73,11.88,17.62,26.4,17.62,43.58s-5.88,31.73-17.62,43.6c-11.76,11.88-26.14,17.8-43.16,17.8s-31.42-5.92-43.16-17.8c-11.76-11.86-17.63-26.41-17.63-43.6s5.87-31.71,17.63-43.58c11.73-11.86,26.12-17.82,43.16-17.82s31.39,5.95,43.16,17.82ZM2638.21,932.91c11.73,11.88,17.63,26.41,17.63,43.6s-5.9,31.73-17.63,43.58c-11.75,11.88-26.14,17.82-43.16,17.82s-31.42-5.94-43.16-17.82c-11.76-11.85-17.63-26.4-17.63-43.58s5.87-31.72,17.63-43.6c11.73-11.85,26.14-17.8,43.16-17.8s31.41,5.95,43.16,17.8ZM2638.21,1055.71c11.73,11.88,17.63,26.4,17.63,43.58s-5.9,31.73-17.63,43.6c-11.75,11.88-26.14,17.8-43.16,17.8s-31.42-5.92-43.16-17.8c-11.76-11.86-17.63-26.4-17.63-43.6s5.87-31.71,17.63-43.58c11.73-11.86,26.14-17.8,43.16-17.8s31.41,5.94,43.16,17.8ZM2638.21,1178.49c11.73,11.88,17.63,26.41,17.63,43.6s-5.9,31.73-17.63,43.6c-11.75,11.88-26.14,17.8-43.16,17.8s-31.42-5.92-43.16-17.8c-11.76-11.86-17.63-26.41-17.63-43.6s5.87-31.72,17.63-43.6c11.73-11.85,26.14-17.8,43.16-17.8s31.41,5.95,43.16,17.8ZM2638.21,1301.29c11.73,11.88,17.63,26.4,17.63,43.6s-5.9,31.73-17.63,43.58c-11.75,11.88-26.14,17.8-43.16,17.8s-31.42-5.92-43.16-17.8c-11.76-11.85-17.63-26.4-17.63-43.58s5.87-31.72,17.63-43.6c11.73-11.86,26.14-17.8,43.16-17.8s31.41,5.94,43.16,17.8Z"/>
        <path class="cls-1" d="M2694.26,1466.89c15.26-131.57,15.26-476.92,0-607.46-6.11-52.42-22.9-58.59-31.04-67.32h342.93l313.41,282.15c0-111.52-77.85-226.13-195.88-282.15h301.2c-8.14,8.74-23.91,9.76-30.02,62.19-15.26,131.57-15.26,476.92,0,607.46,6.11,52.42,21.88,59.1,30.02,67.32h-103.29l-550.02-499.02c0,207.63,286.46,426.56,393.81,499.02h-502.18c8.14-8.22,24.93-9.25,31.04-62.19Z"/>
      </g>
    </g>
    <text class="cls-2" transform="translate(767.32 440.98)"><tspan x="0" y="0">UX|UI</tspan></text>
    <text class="cls-2" transform="translate(388.53 1081.76)"><tspan x="0" y="0">GRAPHIC </tspan><tspan x="53.15" y="116.95">DESIGN</tspan></text>
    <text class="cls-2" transform="translate(3437.21 897.55)"><tspan x="0" y="0">MARKETING</tspan><tspan x="150.16" y="116.95">DIGITAL</tspan></text>
  </g>
</svg>