<?xml version="1.0" encoding="UTF-8"?>
<svg id="Capa_2" xmlns="http://www.w3.org/2000/svg" xmlns:xlink="http://www.w3.org/1999/xlink" viewBox="0 0 464.21 394.48">
  <defs>
    <style>
      .cls-1 {
        stroke: #65c8d0;
      }

      .cls-1, .cls-2, .cls-3, .cls-4 {
        stroke-miterlimit: 10;
      }

      .cls-1, .cls-3 {
        stroke-width: 6.35px;
      }

      .cls-1, .cls-3, .cls-4 {
        fill: none;
      }

      .cls-5 {
        fill: #1b31cf;
      }

      .cls-2 {
        stroke: #0054f5;
      }

      .cls-2, .cls-6 {
        fill: #f7931e;
      }

      .cls-3, .cls-4 {
        stroke: #1b31cf;
      }

      .cls-4 {
        stroke-width: 17px;
      }

      .cls-7 {
        clip-path: url(#clippath);
      }
    </style>
    <clipPath id="clippath">
      <path class="cls-5" d="M235.54,96.85c-15.96,4.59-40.26,13.76-64.99,32.77-32.95,25.33-49.82,55.19-57.6,71.63-2.29-7.73-4.59-15.46-6.88-23.19-11.83-1.02-16.37,3.66-17.41,4.84-8.02,9.11.93,27.43,4.15,34.02,4.18,8.56,9.44,14.61,13.25,18.4,6.77,6.37,16.89,16.39,28.09,29.67,18.45,21.88,15.02,27.36,29.67,38.77,13.51,10.53,19.73,7.74,28.09,15.43,9.07,8.34,16.97,25.61,9.49,65.41-90.67,10.04-122.43-6.18-133.45-24.79-5.9-9.97-8.8-25.61-22.65-31.01-19.04-7.42-44.04,10.26-45.26,7.8-.67-1.35,8.07-4.28,12.66-12.26,7.89-13.73-5.61-26.64-2.94-43.04,3.18-19.59,24.98-16.75,40.13-39.25,21.58-32.04-4.31-64.97,18.07-86.37,12.54-12,27.16-7.86,35.86-22.77,6.15-10.53,4.87-22.91,2.64-32.09-1.05-46.75,25.4-86.37,62.24-97.58,31.14-9.48,59.02,4.58,66.34,8.57,3.07-1.68,40.15-21.14,77.13-1.71,22.23,11.68,38.4,46.34,42.33,71.34.68,4.34,1.73,13.28,7.78,22.62,7.85,12.11,15.73,11.96,25.32,20.51,20.68,18.42,22.06,52.91,23.08,82.29.46,13.31-.8,12.4.4,17.8,1.26,5.67,39.49,35.58,49.45,58.95,7.98,18.74,1.99,43.09-8.31,47.47-6.66,2.83-11.77-4.12-21.89-6.07-24.31-4.68-46.16,25.54-64.35,41.14-19.5,16.73-53.11,32.38-114.99,27.43,26.47-15.96,38.07-33.17,43.78-45.89,5.47-12.2,5.61-20.48,13.05-36.4,8.37-17.91,19.02-30.6,26.51-38.37,3.71-7.67,7.09-16.47,15.82-26.11,5.65-6.25,11.37-10.44,15.43-13.05,4.47-3.07,13.44-10.26,17.21-22.55,3.17-10.33,3.73-27.77-5.54-32.64-4.1-2.15-8.93-1.23-12.46,0-2.24,8.37-4.48,16.75-6.73,25.12-5.91-27.51-17.58-41.11-27.3-48.46-23.59-17.85-49.51-9.26-74.95-30.97-10.79-9.21-16.87-19.93-20.28-27.38Z"/>
    </clipPath>
  </defs>
  <g id="Capa_2-2" data-name="Capa_2">
    <path class="cls-4" d="M255.6,147.88c3.9-4.58,12.51-13.41,26.51-18.59,18.09-6.7,33.9-3.15,39.56-1.58"/>
    <path class="cls-4" d="M210.6,147.88c-3.9-4.58-12.51-13.41-26.51-18.59-18.09-6.7-33.9-3.15-39.56-1.58"/>
    <path class="cls-3" d="M206.74,141.36c5.87,6.5,11.74,13,17.6,19.5,2.04,7.73,3.99,18.46,3.69,31.27-.24,10.43-1.9,19.3-3.69,26.12-3.43,6.94-6.86,13.89-10.29,20.83l13.25,7.31c1.51,2.95,4.58,4.74,7.8,4.55,4.58-.27,6.74-4.37,6.83-4.55,3.43-2.29,6.86-4.58,10.29-6.87"/>
    <g>
      <line class="cls-3" x1="269.64" y1="199.71" x2="275.56" y2="188.72"/>
      <g>
        <rect class="cls-2" x="293.03" y="171.59" width="21.57" height="17.17" transform="translate(-14.96 28.03) rotate(-5.16)"/>
        <polygon class="cls-3" points="253.73 187.46 336.41 160.95 311.69 190.82 275.56 188.72 253.73 187.46"/>
        <line class="cls-3" x1="290.81" y1="199.71" x2="295.07" y2="189.86"/>
        <line class="cls-3" x1="338.28" y1="178.54" x2="326.51" y2="172.92"/>
        <line class="cls-3" x1="329.58" y1="186.45" x2="319.1" y2="181.87"/>
      </g>
    </g>
    <line class="cls-1" x1="112.94" y1="178.06" x2="124.71" y2="172.44"/>
    <g>
      <rect class="cls-2" x="146.87" y="174.12" width="21.57" height="16.33" transform="translate(298.29 378) rotate(-174.84)"/>
      <polygon class="cls-3" points="197.48 186.97 114.8 160.47 139.53 190.34 175.66 188.24 197.48 186.97"/>
      <line class="cls-3" x1="186.61" y1="200.27" x2="180.69" y2="189.29"/>
      <line class="cls-3" x1="160.41" y1="199.22" x2="156.14" y2="189.37"/>
      <line class="cls-3" x1="121.64" y1="185.97" x2="132.12" y2="181.39"/>
    </g>
    <polygon class="cls-6" points="204.77 283.18 265.3 283.18 234.45 301.18 204.77 283.18"/>
    <polyline class="cls-5" points="226.04 267.03 234.85 270.88 244.04 267.03"/>
    <g>
      <path class="cls-5" d="M235.54,96.85c-15.96,4.59-40.26,13.76-64.99,32.77-32.95,25.33-49.82,55.19-57.6,71.63-2.29-7.73-4.59-15.46-6.88-23.19-11.83-1.02-16.37,3.66-17.41,4.84-8.02,9.11.93,27.43,4.15,34.02,4.18,8.56,9.44,14.61,13.25,18.4,6.77,6.37,16.89,16.39,28.09,29.67,18.45,21.88,15.02,27.36,29.67,38.77,13.51,10.53,19.73,7.74,28.09,15.43,9.07,8.34,16.97,25.61,9.49,65.41-90.67,10.04-122.43-6.18-133.45-24.79-5.9-9.97-8.8-25.61-22.65-31.01-19.04-7.42-44.04,10.26-45.26,7.8-.67-1.35,8.07-4.28,12.66-12.26,7.89-13.73-5.61-26.64-2.94-43.04,3.18-19.59,24.98-16.75,40.13-39.25,21.58-32.04-4.31-64.97,18.07-86.37,12.54-12,27.16-7.86,35.86-22.77,6.15-10.53,4.87-22.91,2.64-32.09-1.05-46.75,25.4-86.37,62.24-97.58,31.14-9.48,59.02,4.58,66.34,8.57,3.07-1.68,40.15-21.14,77.13-1.71,22.23,11.68,38.4,46.34,42.33,71.34.68,4.34,1.73,13.28,7.78,22.62,7.85,12.11,15.73,11.96,25.32,20.51,20.68,18.42,22.06,52.91,23.08,82.29.46,13.31-.8,12.4.4,17.8,1.26,5.67,39.49,35.58,49.45,58.95,7.98,18.74,1.99,43.09-8.31,47.47-6.66,2.83-11.77-4.12-21.89-6.07-24.31-4.68-46.16,25.54-64.35,41.14-19.5,16.73-53.11,32.38-114.99,27.43,26.47-15.96,38.07-33.17,43.78-45.89,5.47-12.2,5.61-20.48,13.05-36.4,8.37-17.91,19.02-30.6,26.51-38.37,3.71-7.67,7.09-16.47,15.82-26.11,5.65-6.25,11.37-10.44,15.43-13.05,4.47-3.07,13.44-10.26,17.21-22.55,3.17-10.33,3.73-27.77-5.54-32.64-4.1-2.15-8.93-1.23-12.46,0-2.24,8.37-4.48,16.75-6.73,25.12-5.91-27.51-17.58-41.11-27.3-48.46-23.59-17.85-49.51-9.26-74.95-30.97-10.79-9.21-16.87-19.93-20.28-27.38Z"/>
      <g class="cls-7">
        <path class="cls-5" d="M332.48,267.86c2.03,18.67,1.54,37.62-1.48,56.16-3.02,18.54-8.46,36.71-16.23,53.82-4.37,9.62-9.48,18.9-15.26,27.75-1.06,1.62,1.54,3.13,2.59,1.51,10.38-15.89,18.56-33.2,24.35-51.27,5.79-18.07,9.18-36.93,10.04-55.89.49-10.7.15-21.43-1.01-32.08-.21-1.9-3.21-1.92-3,0h0Z"/>
        <g>
          <path class="cls-6" d="M307.33,272.27c2.18,24.08-3.02,48.22-9.68,71.47-2.42,8.46-5.09,16.96-9.58,24.53s-11.01,14.24-19.24,17.35"/>
          <path class="cls-6" d="M266.4,272.27c.94,10.67.47,21.4-.94,32.01l1.46-10.88c-1.31,9.71-3.37,19.3-5.82,28.78s-4.79,18.38-8.44,27.09l4.13-9.78c-2,4.71-4.43,9.22-7.56,13.29l6.4-8.28c-2.16,2.77-4.6,5.28-7.37,7.45l8.28-6.4c-2.26,1.73-4.68,3.18-7.29,4.31l9.78-4.13c-.36.15-.72.29-1.08.43-5.33,1.27-9.97,3.71-13.92,7.33-4.46,2.89-7.97,6.71-10.54,11.48-2.99,4.7-4.61,9.77-4.86,15.22-1.22,5.44-.97,10.88.73,16.32l4.13,9.78c3.64,6.15,8.53,11.05,14.68,14.68l9.78,4.13c7.25,1.95,14.51,1.95,21.76,0,3.95-1.52,7.9-3.18,11.74-4.95.88-.4,1.73-.85,2.57-1.33,4.39-2.54,8.34-5.99,12.28-9.11,5.47-4.33,9.41-10.11,13.62-15.61,2.33-3.05,4.3-6.32,5.97-9.77,2.37-4.88,4.4-9.94,6.41-14.98.79-1.98,1.5-3.98,2.17-6,2.72-8.21,4.96-16.62,6.98-25.03,2.88-12.02,4.71-24.15,6.18-36.43,1.18-9.83,1.51-19.76.64-29.63.21-5.64-.96-10.89-3.53-15.77-1.65-5.07-4.47-9.47-8.46-13.17-3.71-3.99-8.1-6.81-13.17-8.46-4.88-2.56-10.13-3.74-15.77-3.53l-10.88,1.46c-6.93,1.94-12.95,5.45-18.06,10.53l-6.4,8.28c-3.7,6.38-5.57,13.27-5.59,20.66h0Z"/>
        </g>
        <g>
          <path class="cls-6" d="M133.77,232.37c13.8,14.7,21.97,34.57,22.49,54.73.19,7.14-.51,14.53,2.05,21.2,2.49,6.49,7.75,11.43,12.17,16.79,15.08,18.31,20.88,42.62,22.63,66.28"/>
          <path class="cls-6" d="M104.83,261.31c1.78,1.91,3.47,3.89,5.07,5.95l-6.4-8.28c4.43,5.78,8.09,12.09,10.92,18.8l-4.13-9.78c2.85,6.85,4.82,14.02,5.82,21.37l-1.46-10.88c.59,4.54.72,9.07.73,13.65,0,2.44,0,4.89.19,7.33.36,4.7,1.1,9.38,1.82,14.03.18,1.19.43,2.37.75,3.53,1.52,5.4,3.79,10.72,6.6,15.58s6.58,9.15,9.88,13.29c2.73,3.44,5.79,6.6,8.48,10.07l-6.4-8.28c4.59,5.99,8.29,12.57,11.23,19.51l-4.13-9.78c4.45,10.61,7.1,21.87,8.65,33.25l-1.46-10.88c.52,3.85.91,7.71,1.2,11.58-.21,5.64.96,10.89,3.53,15.77,1.65,5.07,4.47,9.47,8.46,13.17,3.71,3.99,8.1,6.81,13.17,8.46,4.88,2.56,10.13,3.74,15.77,3.53l10.88-1.46c6.93-1.94,12.95-5.45,18.06-10.53l6.4-8.28c3.7-6.38,5.57-13.27,5.59-20.66-.68-9.04-1.88-18.06-3.34-27-.87-5.34-2.01-10.64-3.49-15.85-2.43-8.56-5.95-16.8-9.6-24.9-2.19-4.86-4.79-9.54-7.82-13.93-2.76-4-5.84-7.78-8.83-11.61-.93-1.19-1.88-2.36-2.86-3.51-2.05-2.39-4.18-4.72-6.12-7.21l6.4,8.28c-1.74-2.26-3.28-4.64-4.42-7.26l4.13,9.78c-.98-2.35-1.56-4.81-1.9-7.33l1.46,10.88c-.65-5.33-.28-10.71-.51-16.06-.11-2.4-.33-4.79-.64-7.17-.76-5.89-1.39-11.93-2.68-17.77-1.05-4.75-2.51-9.42-4.36-13.92-3.15-7.66-6.2-15.35-10.59-22.4-1.45-2.33-3.03-4.57-4.69-6.75-3.69-4.83-7.3-9.78-11.47-14.23-3.71-3.99-8.1-6.81-13.17-8.46-4.88-2.56-10.13-3.74-15.77-3.53-5.64-.21-10.89.96-15.77,3.53-5.07,1.65-9.47,4.47-13.17,8.46l-6.4,8.28c-3.7,6.38-5.57,13.27-5.59,20.66l1.46,10.88c1.94,6.93,5.45,12.95,10.53,18.06h0Z"/>
        </g>
        <path class="cls-5" d="M122.15,163.78c-3.4,3.33-6.8,6.65-10.19,9.98-1.56,1.53-3.25,2.99-4.65,4.67-1.16,1.39-4.01,4.61-5.33,7.1l-3.02,7.17c-.06.13-.11.26-.15.39-.07.23-.1.45-.14.69l-1.07,7.98-.02.28c.05,1.43.23,2.86.55,4.27.18,1.38.37,2.75.55,4.12.05.23.11.44.18.66l3.02,7.17c.07.17.17.32.28.47,1.89,3.5,4.46,6.3,7.73,8.42,2.9,2.65,6.3,4.44,10.2,5.37,3.99,1.25,7.98,1.43,11.96.54,3.99-.18,7.71-1.37,11.15-3.56l6.07-4.69c3.72-3.74,6.29-8.16,7.72-13.24l1.07-7.98c-.02-5.42-1.38-10.46-4.1-15.14-.12-.14-.21-.3-.28-.47l3.02,7.17c-.1-.27-.16-.51-.2-.79l1.07,7.98c-.02-.19-.01-.37,0-.56l-1.07,7.98c.05-.38.15-.72.29-1.08l-3.02,7.17c.18-.37.39-.7.64-1.03l-4.69,6.07c1.07-1.32,2.4-2.46,3.61-3.65l3.66-3.58,7.58-7.42c2.93-2.72,4.99-5.94,6.2-9.65,1.88-3.58,2.74-7.43,2.58-11.56.16-4.13-.71-7.98-2.58-11.56-1.21-3.72-3.28-6.94-6.2-9.65l-6.07-4.69c-4.68-2.71-9.73-4.08-15.14-4.1l-7.98,1.07c-5.08,1.43-9.49,4-13.24,7.72h0Z"/>
        <path class="cls-5" d="M337.49,219.22c4.13.16,7.98-.71,11.56-2.58,3.72-1.21,6.94-3.28,9.65-6.2,2.93-2.72,4.99-5.94,6.2-9.65,1.88-3.58,2.74-7.43,2.58-11.56l-1.07-7.98c-1.43-5.08-4-9.49-7.72-13.24l-6.07-4.69c-4.68-2.71-9.73-4.08-15.14-4.1-4.13-.16-7.98.71-11.56,2.58-3.72,1.21-6.94,3.28-9.65,6.2-2.93,2.72-4.99,5.94-6.2,9.65-1.88,3.58-2.74,7.43-2.58,11.56l1.07,7.98c1.43,5.08,4,9.49,7.72,13.24l6.07,4.69c4.68,2.71,9.73,4.08,15.14,4.1h0Z"/>
        <path class="cls-5" d="M143.25,218.76c3.3.12,6.39-.56,9.25-2.07,2.98-.97,5.55-2.62,7.72-4.96,2.34-2.17,3.99-4.75,4.96-7.72,1.5-2.86,2.19-5.94,2.07-9.25l-.86-6.38c-1.14-4.07-3.2-7.6-6.17-10.59-4.7-4.31-10.47-7.03-16.97-7.03-3.3-.12-6.39.56-9.25,2.07-2.98.97-5.55,2.62-7.72,4.96-2.34,2.17-3.99,4.75-4.96,7.72-1.5,2.86-2.19,5.94-2.07,9.25l.86,6.38c1.14,4.07,3.2,7.6,6.17,10.59,4.7,4.31,10.47,7.03,16.97,7.03h0Z"/>
        <g>
          <path class="cls-6" d="M353.02,220.31c-7.77,15.31-20.65,27.45-29.33,42.27-12.25,20.92-15.41,45.76-18.31,69.82"/>
          <path class="cls-6" d="M317.67,199.65c-3.69,7.21-8.48,13.75-13.41,20.14l6.4-8.28c-10.01,12.95-20.91,25.51-27.5,40.65-4,9.2-7.78,18.28-10.32,27.99-1.68,6.41-2.94,12.92-3.99,19.46-1.75,10.89-3.09,21.85-4.41,32.8-.21,5.64.96,10.89,3.53,15.77,1.65,5.07,4.47,9.47,8.46,13.17,3.71,3.99,8.1,6.81,13.17,8.46,4.88,2.56,10.13,3.74,15.77,3.53l10.88-1.46c6.93-1.94,12.95-5.45,18.06-10.53l6.4-8.28c3.7-6.38,5.57-13.27,5.59-20.66.51-4.2,1.02-8.39,1.58-12.58l-1.46,10.88c2.11-15.66,4.97-31.38,11.12-46.01l-4.13,9.78c4.24-9.97,10.22-18.75,16.82-27.29l-6.4,8.28c5.35-6.92,10.85-13.74,15.98-20.83,3.16-4.36,6.09-8.87,8.55-13.67,2.99-4.7,4.61-9.77,4.86-15.22,1.22-5.44.97-10.88-.73-16.32-1.27-5.33-3.71-9.97-7.33-13.92-2.89-4.46-6.71-7.97-11.48-10.54l-9.78-4.13c-7.25-1.95-14.51-1.95-21.76,0l-9.78,4.13c-6.15,3.64-11.05,8.53-14.68,14.68h0Z"/>
        </g>
        <path class="cls-6" d="M346.98,230.55c5.64.21,10.89-.96,15.77-3.53,5.07-1.65,9.47-4.47,13.17-8.46,3.99-3.71,6.81-8.1,8.46-13.17,2.56-4.88,3.74-10.13,3.53-15.77l-1.46-10.88c-1.94-6.93-5.45-12.95-10.53-18.06l-8.28-6.4c-6.38-3.7-13.27-5.57-20.66-5.59-5.64-.21-10.89.96-15.77,3.53-5.07,1.65-9.47,4.47-13.17,8.46-3.99,3.71-6.81,8.1-8.46,13.17-2.56,4.88-3.74,10.13-3.53,15.77l1.46,10.88c1.94,6.93,5.45,12.95,10.53,18.06l8.28,6.4c6.38,3.7,13.27,5.57,20.66,5.59h0Z"/>
        <path class="cls-5" d="M125.64,215c3.3.12,6.39-.56,9.25-2.07,2.98-.97,5.55-2.62,7.72-4.96,2.34-2.17,3.99-4.75,4.96-7.72,1.5-2.86,2.19-5.94,2.07-9.25l-.86-6.38c-1.14-4.07-3.2-7.6-6.17-10.59-4.7-4.31-10.47-7.03-16.97-7.03-3.3-.12-6.39.56-9.25,2.07-2.98.97-5.55,2.62-7.72,4.96-2.34,2.17-3.99,4.75-4.96,7.72-1.5,2.86-2.19,5.94-2.07,9.25l.86,6.38c1.14,4.07,3.2,7.6,6.17,10.59,4.7,4.31,10.47,7.03,16.97,7.03h0Z"/>
        <path class="cls-6" d="M130.78,227.78c5.64.21,10.89-.96,15.77-3.53,5.07-1.65,9.47-4.47,13.17-8.46,3.99-3.71,6.81-8.1,8.46-13.17,2.56-4.88,3.74-10.13,3.53-15.77l-1.46-10.88c-1.94-6.93-5.45-12.95-10.53-18.06l-8.28-6.4c-6.38-3.7-13.27-5.57-20.66-5.59-5.64-.21-10.89.96-15.77,3.53-5.07,1.65-9.47,4.47-13.17,8.46-3.99,3.71-6.81,8.1-8.46,13.17-2.56,4.88-3.74,10.13-3.53,15.77l1.46,10.88c1.94,6.93,5.45,12.95,10.53,18.06l8.28,6.4c6.38,3.7,13.27,5.57,20.66,5.59h0Z"/>
      </g>
    </g>
  </g>
</svg>