<?xml version="1.0" encoding="UTF-8"?>
<svg id="Capa_2" xmlns="http://www.w3.org/2000/svg" xmlns:xlink="http://www.w3.org/1999/xlink" viewBox="0 0 1920 4320">
  <defs>
    <style>
      .cls-1 {
        fill: #e639b3;
      }

      .cls-2 {
        fill: none;
      }

      .cls-3 {
        fill: #0054f5;
      }

      .cls-4 {
        fill: #f7931e;
      }

      .cls-5 {
        fill: url(#celine);
        opacity: .2;
      }
    </style>
    <pattern id="celine" x="0" y="0" width="600.54" height="552.56" patternTransform="translate(-2161.42 1719.13)" patternUnits="userSpaceOnUse" viewBox="0 0 600.54 552.56">
      <g>
        <rect class="cls-2" x="0" width="600.54" height="552.56"/>
        <g>
          <path class="cls-1" d="M548.4,579.54c-76.49,11.88-86.12,21.51-98,98-11.88-76.49-21.51-86.12-98-98,76.49-11.88,86.12-21.51,98-98,11.88,76.49,21.51,86.12,98,98Z"/>
          <path class="cls-4" d="M429.49,355.45c161.34,161.34-119.51,161.34,41.83,0-161.34,161.34-161.34-119.51,0,41.83-161.34-161.34,119.51-161.34-41.83,0,161.34-161.34,161.34,119.51,0-41.83Z"/>
        </g>
        <g>
          <path class="cls-1" d="M248.13,579.54c-76.49,11.88-86.12,21.51-98,98-11.88-76.49-21.51-86.12-98-98,76.49-11.88,86.12-21.51,98-98,11.88,76.49,21.51,86.12,98,98Z"/>
          <path class="cls-4" d="M129.22,355.45c161.34,161.34-119.51,161.34,41.83,0-161.34,161.34-161.34-119.51,0,41.83-161.34-161.34,119.51-161.34-41.83,0,161.34-161.34,161.34,119.51,0-41.83Z"/>
        </g>
        <g>
          <path class="cls-1" d="M698.54,303.26c-76.49,11.88-86.12,21.51-98,98-11.88-76.49-21.51-86.12-98-98,76.49-11.88,86.12-21.51,98-98,11.88,76.49,21.51,86.12,98,98Z"/>
          <path class="cls-4" d="M579.63,79.18c161.34,161.34-119.51,161.34,41.83,0-161.34,161.34-161.34-119.51,0,41.83-161.34-161.34,119.51-161.34-41.83,0,161.34-161.34,161.34,119.51,0-41.83Z"/>
          <path class="cls-3" d="M558.92,451.94c166.5,99.85,41.63,174.74,41.63-24.96,0,199.7-124.88,124.81,41.63,24.96-166.5,99.85-166.5-49.93,0,49.93-166.5-99.85-41.63-174.74-41.63,24.96,0-199.7,124.88-124.81-41.63-24.96,166.5-99.85,166.5,49.93,0-49.93Z"/>
        </g>
        <g>
          <path class="cls-1" d="M548.4,26.98c-76.49,11.88-86.12,21.51-98,98-11.88-76.49-21.51-86.12-98-98,76.49-11.88,86.12-21.51,98-98,11.88,76.49,21.51,86.12,98,98Z"/>
          <path class="cls-3" d="M408.78,175.67c166.5,99.85,41.63,174.74,41.63-24.96,0,199.7-124.88,124.81,41.63,24.96-166.5,99.85-166.5-49.93,0,49.93-166.5-99.85-41.63-174.74-41.63,24.96,0-199.7,124.88-124.81-41.63-24.96,166.5-99.85,166.5,49.93,0-49.93Z"/>
        </g>
        <g>
          <path class="cls-1" d="M398.27,303.26c-76.49,11.88-86.12,21.51-98,98-11.88-76.49-21.51-86.12-98-98,76.49-11.88,86.12-21.51,98-98,11.88,76.49,21.51,86.12,98,98Z"/>
          <path class="cls-4" d="M279.36,79.18c161.34,161.34-119.51,161.34,41.83,0-161.34,161.34-161.34-119.51,0,41.83-161.34-161.34,119.51-161.34-41.83,0,161.34-161.34,161.34,119.51,0-41.83Z"/>
          <path class="cls-3" d="M258.65,451.94c166.5,99.85,41.63,174.74,41.63-24.96,0,199.7-124.88,124.81,41.63,24.96-166.5,99.85-166.5-49.93,0,49.93-166.5-99.85-41.63-174.74-41.63,24.96,0-199.7,124.88-124.81-41.63-24.96,166.5-99.85,166.5,49.93,0-49.93Z"/>
        </g>
        <g>
          <path class="cls-1" d="M248.13,26.98c-76.49,11.88-86.12,21.51-98,98-11.88-76.49-21.51-86.12-98-98,76.49-11.88,86.12-21.51,98-98C162.02,5.47,171.65,15.1,248.13,26.98Z"/>
          <path class="cls-3" d="M108.51,175.67c166.5,99.85,41.63,174.74,41.63-24.96,0,199.7-124.88,124.81,41.63,24.96-166.5,99.85-166.5-49.93,0,49.93-166.5-99.85-41.63-174.74-41.63,24.96,0-199.7,124.88-124.81-41.63-24.96,166.5-99.85,166.5,49.93,0-49.93Z"/>
        </g>
        <g>
          <path class="cls-1" d="M98,303.26C21.51,315.14,11.88,324.77,0,401.26c-11.88-76.49-21.51-86.12-98-98C-21.51,291.38-11.88,281.75,0,205.26c11.88,76.49,21.51,86.12,98,98Z"/>
          <path class="cls-4" d="M-20.91,79.18c161.34,161.34-119.51,161.34,41.83,0-161.34,161.34-161.34-119.51,0,41.83-161.34-161.34,119.51-161.34-41.83,0,161.34-161.34,161.34,119.51,0-41.83Z"/>
          <path class="cls-3" d="M-41.63,451.94C124.88,551.8,0,626.68,0,426.98c0,199.7-124.88,124.81,41.63,24.96-166.5,99.85-166.5-49.93,0,49.93C-124.88,402.02,0,327.13,0,526.83c0-199.7,124.88-124.81-41.63-24.96,166.5-99.85,166.5,49.93,0-49.93Z"/>
        </g>
      </g>
    </pattern>
  </defs>
  <g id="Capa_1-2" data-name="Capa_1">
    <rect class="cls-5" width="1920" height="4320"/>
  </g>
</svg>